# xmcd
#
# Track frame offsets: 
#        150
#        20095
#        40025
#        57692
#
# Disc length: 1001 seconds
#
# Revision: 0
# Processed by: cddbd v1.5.2PL0 Copyright (c) Steve Scherf et al.
# Submitted via: ExactAudioCopy v0.99pb4
#
DISCID=3203e704
DTITLE=Ciara - Get Up
DYEAR=2006
DGENRE=R&B
TTITLE0=Get Up (RMX ft. Chamillionare)
TTITLE1=Get Up (RMX Instrumental)
TTITLE2=Get Up
TTITLE3=Get Up (Instrumental)
EXTD=
EXTT0=
EXTT1=
EXTT2=
EXTT3=
PLAYORDER=
